<?xml version="1.0" standalone="no"?>
<!DOCTYPE svg PUBLIC "-//W3C//DTD SVG 20010904//EN"
 "http://www.w3.org/TR/2001/REC-SVG-20010904/DTD/svg10.dtd">
<svg version="1.0" xmlns="http://www.w3.org/2000/svg"
 width="1920.000000pt" height="1920.000000pt" viewBox="0 0 1920.000000 1920.000000"
 preserveAspectRatio="xMidYMid meet">
<metadata>
Created by potrace 1.16, written by Peter Selinger 2001-2019
</metadata>
<g transform="translate(0.000000,1920.000000) scale(0.100000,-0.100000)"
fill="#000000" stroke="none">
<path d="M5378 13797 c-102 -38 -176 -106 -220 -203 -18 -39 -23 -67 -23 -139
0 -78 4 -98 29 -152 18 -39 47 -80 77 -108 l49 -46 0 -219 0 -220 200 0 200 0
0 220 0 220 45 41 c26 24 59 70 78 108 29 60 32 74 32 156 -1 78 -5 98 -30
149 -36 76 -100 140 -173 174 -68 32 -202 41 -264 19z"/>
<path d="M5113 12294 c-1028 -112 -1922 -657 -2444 -1490 -317 -507 -504
-1123 -545 -1796 l-7 -118 3372 0 3371 0 0 28 c0 55 -30 360 -45 462 -86 586
-275 1088 -572 1525 -534 783 -1396 1285 -2388 1390 -173 18 -572 18 -742 -1z"/>
<path d="M10876 10389 c58 -149 107 -275 110 -280 3 -5 454 -9 1034 -9 970 0
1030 1 1039 18 5 9 53 132 106 272 53 140 99 258 102 263 2 4 -558 7 -1245 7
l-1250 0 104 -271z"/>
<path d="M14585 10643 c4 -10 49 -128 100 -263 51 -135 96 -253 100 -262 7
-17 66 -18 1040 -18 974 0 1033 1 1040 18 28 71 205 535 205 538 0 2 -561 4
-1246 4 -1183 0 -1246 -1 -1239 -17z"/>
<path d="M10780 9698 c0 -7 46 -133 102 -280 l102 -268 1036 0 1037 0 81 213
c45 116 93 242 106 280 l26 67 -1245 0 c-975 0 -1245 -3 -1245 -12z"/>
<path d="M14580 9703 c1 -5 47 -129 104 -278 l103 -270 1038 0 1038 0 104 270
c56 148 103 273 103 277 0 5 -560 8 -1245 8 -685 0 -1245 -3 -1245 -7z"/>
<path d="M10783 8718 c8 -18 56 -144 108 -280 l94 -248 1036 0 1035 0 88 233
c49 127 97 253 107 280 l19 47 -1250 0 -1250 0 13 -32z"/>
<path d="M14584 8733 c3 -10 50 -135 105 -278 l99 -260 1037 0 1037 0 98 257
c54 141 101 266 105 277 l6 21 -1246 0 c-1182 0 -1246 -1 -1241 -17z"/>
<path d="M2650 8285 l0 -215 2890 0 2890 0 -2 213 -3 212 -2887 3 -2888 2 0
-215z"/>
<path d="M10780 7783 c0 -5 43 -124 97 -265 l98 -258 1046 0 1046 0 88 233
c49 127 94 247 102 265 l13 32 -1245 0 c-685 0 -1245 -3 -1245 -7z"/>
<path d="M14585 7773 c4 -10 47 -121 95 -248 48 -126 91 -238 95 -248 7 -16
64 -17 1053 -15 l1046 3 98 255 c53 140 97 258 98 263 0 4 -561 7 -1246 7
-1183 0 -1246 -1 -1239 -17z"/>
<path d="M1935 7651 c-49 -22 -99 -77 -115 -126 -28 -86 18 -199 99 -242 l44
-23 3572 0 3572 0 44 23 c24 13 58 43 74 66 27 38 30 51 30 116 0 65 -3 78
-30 116 -16 23 -50 53 -74 66 l-44 23 -3566 0 c-3428 0 -3568 -1 -3606 -19z"/>
<path d="M1210 6125 l0 -735 8390 0 8390 0 0 735 0 735 -8390 0 -8390 0 0
-735z"/>
</g>
</svg>
