<?xml version="1.0" standalone="no"?>
<!DOCTYPE svg PUBLIC "-//W3C//DTD SVG 20010904//EN"
 "http://www.w3.org/TR/2001/REC-SVG-20010904/DTD/svg10.dtd">
<svg version="1.0" xmlns="http://www.w3.org/2000/svg"
 width="512.000000pt" height="512.000000pt" viewBox="0 0 512.000000 512.000000"
 preserveAspectRatio="xMidYMid meet">
<metadata>
Created by potrace 1.16, written by Peter Selinger 2001-2019
</metadata>
<g transform="translate(0.000000,512.000000) scale(0.100000,-0.100000)"
fill="#000000" stroke="none">
<path d="M2453 5094 c-24 -14 -54 -44 -68 -68 -25 -43 -25 -43 -25 -306 l0
-263 25 -43 c37 -63 95 -94 175 -94 80 0 138 31 175 94 l25 43 0 263 0 263
-25 43 c-37 63 -95 94 -176 94 -51 0 -73 -5 -106 -26z"/>
<path d="M1052 4554 c-88 -44 -129 -141 -102 -241 12 -42 35 -70 179 -216 179
-181 216 -207 299 -207 64 0 98 13 141 53 43 42 61 84 61 149 0 83 -25 120
-207 299 -134 132 -176 168 -209 177 -63 18 -105 15 -162 -14z"/>
<path d="M3900 4567 c-46 -14 -362 -323 -390 -382 -24 -49 -26 -131 -6 -178
17 -39 71 -92 109 -106 46 -17 126 -13 172 9 25 12 106 86 206 187 144 146
167 174 179 216 45 167 -102 306 -270 254z"/>
<path d="M2053 3934 c-62 -37 -93 -95 -93 -174 0 -80 31 -138 94 -175 40 -23
52 -25 175 -25 l131 0 -2 -202 -3 -203 -35 -3 c-19 -1 -87 -12 -150 -23 -590
-103 -1110 -445 -1451 -954 -221 -329 -359 -774 -359 -1159 0 -109 2 -123 25
-162 15 -26 43 -54 69 -69 l43 -25 531 0 532 0 0 -180 0 -180 -712 0 -711 0
-43 -25 c-63 -37 -94 -95 -94 -175 0 -80 31 -138 94 -175 l43 -25 2423 0 2423
0 43 25 c63 37 94 95 94 175 0 80 -31 138 -94 175 l-43 25 -711 0 -712 0 0
180 0 180 532 0 531 0 43 25 c26 16 54 43 70 71 l27 45 -6 167 c-21 672 -368
1300 -939 1705 -266 188 -629 329 -958 371 l-95 12 -3 202 -2 202 131 0 c123
0 135 2 175 25 63 37 94 95 94 175 0 80 -31 138 -94 175 l-43 25 -464 0 -464
0 -42 -26z m658 -1188 c115 -6 292 -43 420 -86 607 -208 1069 -733 1188 -1354
12 -59 21 -116 21 -127 0 -19 -22 -19 -1780 -19 -1758 0 -1780 0 -1780 19 0
11 9 68 21 127 136 704 706 1275 1414 1414 105 21 306 39 370 33 17 -1 73 -4
126 -7z m449 -2166 l0 -180 -600 0 -600 0 0 180 0 180 600 0 600 0 0 -180z"/>
</g>
</svg>
