<?xml version="1.0" standalone="no"?>
<!DOCTYPE svg PUBLIC "-//W3C//DTD SVG 20010904//EN"
 "http://www.w3.org/TR/2001/REC-SVG-20010904/DTD/svg10.dtd">
<svg version="1.0" xmlns="http://www.w3.org/2000/svg"
 width="512.000000pt" height="512.000000pt" viewBox="0 0 512.000000 512.000000"
 preserveAspectRatio="xMidYMid meet">
<metadata>
Created by potrace 1.16, written by Peter Selinger 2001-2019
</metadata>
<g transform="translate(0.000000,512.000000) scale(0.100000,-0.100000)"
fill="#000000" stroke="none">
<path d="M2400 4461 c-179 -57 -308 -181 -377 -363 -11 -29 -18 -90 -22 -187
l-6 -144 -95 -32 c-372 -125 -684 -338 -936 -638 -269 -320 -431 -704 -477
-1134 l-5 -43 2078 0 2078 0 -5 43 c-89 823 -630 1508 -1398 1768 l-110 37 -6
144 c-4 117 -10 154 -29 203 -64 166 -187 284 -353 340 -95 31 -249 34 -337 6z
m258 -330 c85 -43 127 -114 138 -227 l6 -69 -242 0 -242 0 6 69 c10 112 53
183 136 227 48 25 148 25 198 0z m-827 -1597 c106 -62 106 -206 -1 -268 -30
-18 -52 -21 -150 -21 -98 0 -120 3 -150 21 -126 73 -99 248 43 285 17 4 75 7
128 5 74 -2 105 -7 130 -22z m880 0 c106 -62 106 -206 -1 -268 -30 -18 -52
-21 -150 -21 -98 0 -120 3 -150 21 -126 73 -99 248 43 285 17 4 75 7 128 5 74
-2 105 -7 130 -22z m880 0 c106 -62 106 -206 -1 -268 -30 -18 -52 -21 -150
-21 -98 0 -120 3 -150 21 -126 73 -99 248 43 285 17 4 75 7 128 5 74 -2 105
-7 130 -22z"/>
<path d="M232 1580 c-48 -29 -72 -75 -72 -138 0 -48 15 -82 175 -401 141 -283
180 -353 207 -372 l33 -24 1985 0 1985 0 33 24 c27 19 66 89 207 372 160 319
175 353 175 401 0 63 -24 109 -72 138 -33 20 -56 20 -2328 20 -2272 0 -2295 0
-2328 -20z"/>
</g>
</svg>
